<?xml version="1.0" encoding="utf-8"?>
<!-- Generator: Adobe Illustrator 16.0.0, SVG Export Plug-In . SVG Version: 6.00 Build 0)  -->
<!DOCTYPE svg PUBLIC "-//W3C//DTD SVG 1.1//EN" "http://www.w3.org/Graphics/SVG/1.1/DTD/svg11.dtd">
<svg version="1.1" id="Layer_1" xmlns="http://www.w3.org/2000/svg" xmlns:xlink="http://www.w3.org/1999/xlink" x="0px" y="0px"
	 width="30px" height="30.001px" viewBox="0 0 30 30.001" enable-background="new 0 0 30 30.001" xml:space="preserve">
<g>
	<g>
		<g>
			<circle id="XMLID_14_" fill="#2E9CD7" cx="15.051" cy="15.002" r="12.803"/>
			<path fill="#2E9CD7" d="M15.051,27.917c-7.121,0-12.916-5.793-12.916-12.915S7.93,2.087,15.051,2.087s12.916,5.794,12.916,12.916
				S22.172,27.917,15.051,27.917z M15.051,2.312C8.053,2.312,2.36,8.004,2.36,15.002c0,6.997,5.693,12.692,12.691,12.692
				s12.691-5.695,12.691-12.692C27.743,8.004,22.049,2.312,15.051,2.312z"/>
		</g>
		<path id="XMLID_13_" fill="#2B509B" d="M9.204,26.272c0.238,0.135,0.486,0.264,0.738,0.383c0.006,0.004,0.014,0.008,0.02,0.008
			c1.084,0.439,2.244,0.428,3.266,0.043c0.811-0.301,1.533-0.836,2.059-1.561c0.191-0.256,0.354-0.537,0.488-0.842
			c1.006-2.277-0.027-4.938-2.303-5.943c-2.279-1.008-4.941,0.025-5.947,2.303c-0.004,0.01-0.008,0.02-0.014,0.029
			c-1.531-2.463-2.014-5.354-0.889-8.229c0.049-0.128,0.102-0.257,0.158-0.385c2.115-4.789,7.707-6.955,12.496-4.841
			c0.127,0.056,0.254,0.117,0.377,0.178c0.129,0.048,0.254,0.102,0.383,0.158c4.172,1.842,6.514,6.111,6.1,10.413
			c-0.102,1.07-0.375,2.141-0.832,3.178c-0.455,1.031-1.059,1.947-1.773,2.74c-1.777,2.117-4.25,3.492-6.914,3.932
			c4.328-0.566,8.266-3.314,10.158-7.602C29.657,13.703,26.7,6.071,20.17,3.188C13.637,0.305,6.006,3.26,3.122,9.792
			C0.239,16.323,3.297,23.726,9.829,26.61C9.608,26.511,9.399,26.399,9.204,26.272z"/>
		<path id="XMLID_7_" fill="#FFFFFF" d="M9.258,23.763c0.166,0.094,0.338,0.182,0.512,0.266c0.006,0.004,0.01,0.004,0.016,0.006
			c0.75,0.305,1.555,0.295,2.262,0.027c0.561-0.207,1.062-0.578,1.426-1.078c0.131-0.178,0.246-0.373,0.338-0.584
			c0.697-1.576-0.018-3.422-1.596-4.117c-1.578-0.697-3.422,0.016-4.119,1.594c-0.002,0.008-0.006,0.014-0.01,0.021
			c-1.062-1.707-1.396-3.71-0.617-5.703c0.035-0.088,0.072-0.178,0.111-0.266c1.465-3.318,5.34-4.819,8.658-3.354
			c0.088,0.038,0.176,0.08,0.26,0.123c0.09,0.034,0.178,0.07,0.266,0.11c2.889,1.275,4.514,4.233,4.227,7.213
			c-0.07,0.742-0.26,1.484-0.578,2.203c-0.314,0.713-0.732,1.348-1.229,1.898c-1.23,1.467-2.943,2.418-4.791,2.725
			c3-0.393,5.729-2.297,7.041-5.268c1.996-4.525-0.053-9.812-4.578-11.81c-4.523-1.998-9.812,0.05-11.811,4.576
			s0.121,9.652,4.646,11.652C9.54,23.929,9.395,23.851,9.258,23.763z"/>
		<path fill="#2B509B" d="M14.536,25.851c0,0,1.41-1.205,1.439-2.58c0.031-1.375-1.693,1.576-1.693,1.576L14.536,25.851z"/>
	</g>
</g>
</svg>
